<svg xmlns="http://www.w3.org/2000/svg" viewBox="0 0 90 84"><path fill-rule="evenodd" clip-rule="evenodd" d="M45 70.412c18.285 0 31.438-13.613 31.438-28.412 0-14.8-13.153-28.412-31.438-28.412-18.285 0-31.438 13.613-31.438 28.412 0 14.8 13.153 28.412 31.438 28.412zM45 84c24.853 0 45-18.804 45-42S69.853 0 45 0 0 18.804 0 42s20.147 42 45 42z" fill="#2E99CE"/><path fill-rule="evenodd" clip-rule="evenodd" d="M54.436 27.336a4.947 4.947 0 011.5 6.824L41.759 56.396a4.926 4.926 0 01-6.81 1.503 4.947 4.947 0 01-1.501-6.824L47.625 28.84a4.926 4.926 0 016.81-1.504z" fill="#2E99CE"/></svg>
