<?xml version="1.0" encoding="UTF-8"?><svg version="1.1" viewBox="0 0 24 24" xmlns="http://www.w3.org/2000/svg" xmlns:xlink="http://www.w3.org/1999/xlink"><g stroke-linecap="round" stroke-width="1.5" stroke="currentColor" fill="none" stroke-linejoin="round"><path d="M21.75 5.25h-8.25l-1.31134e-07 3.55271e-15c-1.65685 7.24234e-08-3 1.34315-3 3 0 0 0 1.77636e-15 0 1.77636e-15v3.75"></path><polyline points="17.25,9.75 21.75,5.25 17.25,.75"></polyline><path d="M18.75 14.25v7.5 0c0 .828427-.671573 1.5-1.5 1.5h-13.5 -6.55671e-08c-.828427-3.62117e-08-1.5-.671573-1.5-1.5 0 0 0 0 0 0v-12l1.68754e-14 2.26494e-07c-1.25089e-07-.828427.671573-1.5 1.5-1.5h2.25"></path></g></svg>
