<svg  viewBox="0 0 91 89" fill="none" xmlns="http://www.w3.org/2000/svg"><path fill-rule="evenodd" clip-rule="evenodd" d="M45.41 0C20.337 0 0 20.333 0 45.419 0 65.481 13.012 82.505 31.058 88.51c2.273.416 3.1-.987 3.1-2.188 0-1.08-.039-3.934-.06-7.726-12.633 2.746-15.299-6.086-15.299-6.086-2.066-5.247-5.043-6.644-5.043-6.644-4.124-2.819.312-2.76.312-2.76 4.559.32 6.956 4.678 6.956 4.678 4.051 6.942 10.63 4.938 13.218 3.775.413-2.935 1.587-4.937 2.883-6.072-10.084-1.146-20.687-5.043-20.687-22.446 0-4.957 1.77-9.01 4.675-12.186-.468-1.15-2.026-5.766.447-12.02 0 0 3.81-1.22 12.487 4.656 3.622-1.006 7.508-1.51 11.37-1.527 3.858.016 7.742.521 11.369 1.527 8.67-5.877 12.476-4.655 12.476-4.655 2.479 6.253.92 10.87.454 12.019 2.911 3.175 4.668 7.229 4.668 12.186 0 17.447-10.62 21.286-20.735 22.41 1.629 1.402 3.081 4.173 3.081 8.411 0 6.072-.056 10.97-.056 12.46 0 1.212.82 2.626 3.123 2.183C77.83 82.488 90.83 65.475 90.83 45.419c0-25.086-20.336-45.42-45.42-45.42z" fill="#EFEFEF"/></svg>
