<?xml version="1.0" encoding="UTF-8"?><svg version="1.1" viewBox="0 0 24 24" xmlns="http://www.w3.org/2000/svg" xmlns:xlink="http://www.w3.org/1999/xlink"><g fill="currentColor"><path d="M22.75 0h-18.717l5.70624e-08 4.2818e-10c-.416165-.00312279-.805356.205601-1.033.554l-2.75 3.811 7.24633e-08-1.20109e-07c-.163852.271587-.250304.582814-.25.9v12.486l-8.78267e-09-3.66948e-06c.00164928.689509.560487 1.2479 1.25 1.249h3.25 -2.18557e-08c.276142-1.20706e-08.5.223858.5.5v3.5l1.06581e-14 1.50996e-07c8.33927e-08.552285.447715 1 1 1h2.107l-5.61035e-08 1.42109e-12c.357257-9.05569e-06.687372-.190607.866-.5l2.447-4.246 1.16824e-08-2.02345e-08c.0893141-.154697.254372-.249995.433-.25h6.482l6.75867e-08 1.92131e-10c.464348.00132001.90987-.183444 1.237-.513l3.914-3.914 -3.47907e-08 3.49232e-08c.328381-.329633.51314-.775714.514-1.241v-12.085l7.10543e-14-3.99681e-07c0-.690518-.559483-1.25045-1.25-1.251Zm-1.75 12.586l2.28059e-08-.000213569c0 .265195-.10534.51953-.292849.707063l-2.414 2.415 3.0874e-08-3.08833e-08c-.187493.187549-.441805.292943-.707.293h-6.82615l-2.67783e-08 2.29115e-11c-.16289.00013937-.315501.0796167-.409.213l-1.451 2.07615 1.76434e-08-2.58158e-08c-.153631.224793-.460405.282481-.685198.12885 -.13584-.0928379-.216413-.247323-.214802-.41185v-1.507 0c0-.276142-.223858-.5-.5-.5h-2 -2.18557e-08c-.276142-1.20706e-08-.5-.223858-.5-.5 0 0 0-3.55271e-15 0-3.55271e-15v-12l5.32907e-15 7.54979e-08c-4.16963e-08-.276142.223858-.5.5-.5 0 0 3.06093e-10 0 3.06093e-10 0h15l-2.18557e-08 8.88178e-16c.276142-1.20706e-08.5.223858.5.5Z"></path><path d="M11 6.251l-3.27835e-08 8.88178e-16c-.414214 1.81059e-08-.75.335786-.75.75 0 0 0 8.88178e-16 0 8.88178e-16v4l8.88178e-15 1.13247e-07c6.25445e-08.414214.335787.75.75.75 .414214-6.25445e-08.75-.335787.75-.75v-4.001l-3.88536e-09-2.90978e-06c-.00055337-.413823-.33618-.748999-.750003-.748997Z"></path><path d="M16 6.251l-3.27835e-08 8.88178e-16c-.414214 1.81059e-08-.75.335786-.75.75 0 0 0 8.88178e-16 0 8.88178e-16v4l8.88178e-15 1.13247e-07c6.25445e-08.414214.335787.75.75.75 .414214-6.25445e-08.75-.335787.75-.75v-4.001l-3.88536e-09-2.90978e-06c-.00055337-.413823-.33618-.748999-.750003-.748997Z"></path></g></svg>
