<?xml version="1.0" encoding="UTF-8"?><svg version="1.1" viewBox="0 0 24 24" xmlns="http://www.w3.org/2000/svg" xmlns:xlink="http://www.w3.org/1999/xlink"><path d="M17.5 0h-11l3.75026e-07-5.75625e-10c-3.58757.00550643-6.49449 2.91243-6.5 6.5v11l9.307e-08 6.04544e-05c.00553975 3.58757 2.91249 6.49447 6.50006 6.49994h11l-9.07527e-08 1.4014e-10c3.58754-.00553987 6.49443-2.91246 6.49994-6.5v-11l-9.18051e-08-5.9633e-05c-.0055395-3.58757-2.91249-6.49447-6.50006-6.49994Zm-5.5 17.5l-2.40413e-07-7.10543e-15c-3.03757-1.32776e-07-5.5-2.46243-5.5-5.5 1.32776e-07-3.03757 2.46243-5.5 5.5-5.5 3.03757 1.32776e-07 5.5 2.46243 5.5 5.5l7.10543e-15-2.40413e-07c0 3.03757-2.46243 5.5-5.5 5.5Zm6.5-11l-6.55671e-08-1.77636e-15c-.828427-3.62117e-08-1.5-.671573-1.5-1.5 3.62117e-08-.828427.671573-1.5 1.5-1.5 .828427 3.62117e-08 1.5.671573 1.5 1.5v-6.55671e-08c0 .828427-.671573 1.5-1.5 1.5Z" fill="currentColor"></path></svg>
