<?xml version="1.0" encoding="UTF-8"?><svg version="1.1" viewBox="0 0 24 24" xmlns="http://www.w3.org/2000/svg" xmlns:xlink="http://www.w3.org/1999/xlink"><path d="M20.06 3.5h-16.12l-1.72223e-07 3.55271e-15c-2.176 9.51161e-08-3.94 1.764-3.94 3.94 0 0 0 0 0 0v9.12l4.26326e-14 4.22701e-07c3.28567e-07 2.176 1.764 3.94 3.94 3.94h16.12l-1.72223e-07-3.55271e-15c2.176 9.51161e-08 3.94-1.764 3.94-3.94v-9.12h3.55271e-15c0-2.176-1.764-3.94-3.94-3.94 0 0-3.55271e-15 0-3.55271e-15 0Zm-3.52 8.5l-6.77 4.36 -2.34071e-08 1.50177e-08c-.232419.149117-.541715.0815877-.690833-.150831 -.0515377-.0803283-.0790084-.173729-.0791672-.269169v-8.66l-6.9711e-09 4.19963e-06c.000457217-.276142.224685-.499629.500827-.499171 .0954397.000158023.188841.027628.269169.079165l6.77 4.33 2.59078e-08 1.67348e-08c.23196.149831.298538.459334.148707.691293 -.038466.0595508-.089156.110241-.148707.148707Z" fill="currentColor"></path></svg>
