<?xml version="1.0" encoding="UTF-8"?><svg version="1.1" viewBox="0 0 24 24" xmlns="http://www.w3.org/2000/svg" xmlns:xlink="http://www.w3.org/1999/xlink"><path d="M23.32 6.44l1.73704e-09-1.4438e-09c.212362-.176513.241424-.491759.064911-.704121 -.0683083-.0821816-.16115-.140316-.264911-.165879l-.79-.2 -5.07219e-09-1.26984e-09c-.267875-.0670635-.430665-.338585-.363602-.60646 .00806604-.0322186.0193222-.0635534.0336017-.09354l.44-.89 1.51136e-09-3.13584e-09c.119892-.248758.0154257-.547608-.233332-.6675 -.10793-.0520182-.23095-.0635513-.346668-.0325001l-2 .56 5.63418e-09-1.6433e-09c-.151084.044066-.314097.0144272-.44-.08l2.78516e-07 2.08887e-07c-.865481-.649111-1.91815-1-3-1l-2.18557e-07 7.10543e-15c-2.76142 1.20706e-07-5 2.23858-5 5 0 0 0 3.55271e-15 0 3.55271e-15v.36l9.66287e-09 1.33826e-06c.000917788.127156-.09376.234744-.220001.249999 -2.81.33-5.5-1.1-8.4-4.44l6.49761e-09 7.16607e-09c-.128439-.141652-.325323-.199559-.51-.15l1.7395e-08-7.99566e-09c-.166223.0764047-.277447.237489-.289999.42l-3.11431e-07 1.27929e-06c-.400542 1.64534-.238599 3.37742.460001 4.92l3.39009e-09 6.71028e-09c.0622603.123237.0128291.273612-.110408.335872 -.0461674.0233242-.0984329.0317541-.149592.0241278l-1.12-.220001 2.27935e-08 3.66467e-09c-.272641-.0438344-.529195.14165-.573029.414291 -.00937154.0582891-.00834588.117777.00302945.175709l-2.3487e-07-2.08771e-06c.174889 1.55456 1.04689 2.94535 2.37 3.78l1.37242e-08 6.64691e-09c.124264.0601838.176211.209708.116028.333972 -.0245204.0506283-.0653993.0915071-.116028.116028l-.53.21 3.92157e-08-1.57217e-08c-.256312.102756-.380793.393838-.278037.65015 .00542823.01354.0114464.026836.0180373.0398498l-6.90113e-08-1.51007e-07c.594936 1.30181 1.79093 2.2287 3.2 2.48l-1.78746e-08-6.48762e-09c.129787.0471064.196813.190507.149706.320294 -.0252659.0696122-.0800941.124441-.149706.149706l-9.85631e-07 4.0765e-07c-1.35964.562336-2.81873.844633-4.29.830001l4.42917e-08 8.85834e-09c-.276142-.0552285-.544772.123858-.6.4 -.0552285.276142.123858.544772.4.6l-1.55178e-06-7.35975e-07c2.54754 1.20825 5.32118 1.86588 8.14 1.93l-1.52409e-07-2.32453e-09c2.47945.0378164 4.91478-.657992 7-2l-3.48768e-07 2.32812e-07c3.48378-2.32552 5.57123-6.24137 5.56-10.43v-.87l-1.50945e-08 1.79637e-06c.00123466-.146965.0670662-.285944.179999-.380001Z" fill="currentColor"></path></svg>
