<svg viewBox="0 0 67 72" fill="none" xmlns="http://www.w3.org/2000/svg"><linearGradient id="b" gradientTransform="rotate(90)"><stop offset="5%" stop-color="#0d0a11"/><stop offset="95%" stop-color="#BBF4B0"/></linearGradient><linearGradient id="a" gradientTransform="rotate(90)"><stop offset="5%" stop-color="#0d0a11"/><stop offset="95%" stop-color="#5BE058"/></linearGradient><path fill-rule="evenodd" clip-rule="evenodd" d="M58.243 10.335S51.729 6.84 40.319 6.84c-.05.026-3.629 2.223-3.629 2.223a32.024 32.024 0 0116.492 4.486 132.755 132.755 0 000 35.27 66.822 66.822 0 00-4.669 2.219c-.137.071-.272 1.482-.408 1.554C36.097 58.985 33.24 65.55 33.24 65.55s-3.117-6.713-14.858-12.967c-.255-.136-.514-1.611-.778-1.746a68.384 68.384 0 00-4.306-2.018c3.237-18.123 0-35.27 0-35.27s6.277-4.49 16.55-4.49c0 0-3.683-2.295-3.683-2.219-12.072 0-17.928 3.495-17.928 3.495s3.62 22.204 0 42.46C26.068 60.394 33.24 72 33.24 72s6.777-11.339 25.003-19.205c-2.961-20.792 0-42.46 0-42.46z" fill="url(#a)"/><path fill-rule="evenodd" clip-rule="evenodd" d="M56.283 12.17s-6.535-3.01-16.812-3.086a35.298 35.298 0 0114.31 4.365 130.874 130.874 0 000 35.66 68.745 68.745 0 00-4.81 2.285c-.14.073-.28 1.527-.42 1.6C36.184 59.58 33.24 66.343 33.24 66.343s-3.21-6.915-15.305-13.358c-.262-.14-.53-1.659-.801-1.798a69.927 69.927 0 00-4.436-2.078 108.382 108.382 0 000-35.66s5.229-3.58 14.15-4.364c-10.754.103-16.651 3.085-16.651 3.085s3.335 21.214 0 39.881C26.629 59.054 33.24 69.754 33.24 69.754S39.487 59.3 56.283 52.05c-2.728-19.16 0-39.881 0-39.881z" fill="url(#b)"/><path d="M66.48.017S50.99 12.61 47.885 14.007c-3.843 13.005-14.644 20.58-14.644 20.58S22.446 27.028 18.6 13.988C15.491 12.59 0 0 0 0s9.722 10.357 10.636 13.335a41.264 41.264 0 00-6.497-3.444c9.971 6.051 6.772 27.473 6.772 27.473s1.981-5.812 4.547-6.189c2.559-.369 8.544 10.759 8.544 10.759s-5.709-7.085-8.544-7.085c-1.934 0-2.621 4.744-2.621 4.744s1.43-1.66 2.621-1.66c3.288 0 8.262 11.731 8.262 11.731s.093-2.427 1.838-2.427c4.202 0 7.634 14.53 7.68 15.068 0 0 3.482-15.06 7.685-15.06 1.744 0 1.837 2.438 1.837 2.438s5.162-11.544 8.449-11.544c1.198 0 2.438 1.483 2.438 1.483s-.503-4.754-2.438-4.754c-2.836 0-8.73 7.078-8.73 7.078s6.171-11.122 8.73-10.746c2.565.37 4.36 6.182 4.36 6.182s-3.2-21.421 6.772-27.473a40.564 40.564 0 00-6.492 3.447C56.76 10.375 66.48.016 66.48.016zM29.684 28.163l3.556-2.515 3.558 2.515-1.253-4.22L39 21.28l-4.34-.086-1.42-4.168-1.418 4.168-4.342.086 3.457 2.662-1.253 4.221z" fill="#fff"/></svg>