<svg viewBox="0 0 765 145" xmlns="http://www.w3.org/2000/svg"><path fill="#fff" d="M332.247 21.837v91.107c0 4.503 1.428 9.462 6.977 9.462 4.672 0 8.755-1.9 11.473-4.023-1.233-4.656-1.911-9.936-1.911-15.876 0-28.833 17.622-42.132 35.753-42.132 6.543 0 11.944 1.29 17.959 4.593C408.012 68 413.6 68.82 419.36 68.82c5.36 0 13.053-2.961 15.63-6.066h21.399v4.935c6.663-5.292 13.872-7.281 21.279-7.281 17.112 0 23.316 13.287 23.316 25.1v27.94c0 6.039 1.775 9.153 6.407 9.153 4.89 0 10.315-2.646 12.784-4.521 5.03 2.883 10.757 4.52 18.33 4.52 4.686 0 7.653-1.67 7.653-4.718 0-3.357-4.279-4.533-12.663-8.544-14.541-6.954-20.121-12.516-20.121-25.308 0-13.821 13.208-23.943 31.254-23.943 6.42 0 13.271.834 19.7 2.586v21.909c-6.311-1.18-12.248-2.421-18.473-2.421-4.609 0-7.225 1.53-7.225 4.16 0 3.247 3.34 5.098 12.826 9.112 10.466 4.428 20.022 9.465 20.022 23.82 0 15.993-15.394 25.428-31.843 25.428-8.723 0-14.625-1.926-22.17-5.367-4.98 2.592-11.319 5.469-19.031 5.469-12.981 0-22.452-6.87-22.452-23.877V92.862c0-6.04-3.426-10.218-8.26-10.218-5.502 0-9.123 3.96-9.123 10.218v49.614h-25.053V84.762c-4.127 2.184-9.978 2.829-15.846 2.202 1.311 4.557 1.909 9.909 1.909 15.543 0 26.448-14.158 42.324-35.07 42.324-9.379 0-17.824-2.961-24.15-9.087-8.544 6.05-18.024 9.039-28.68 9.039-8.394 0-14.601-3.675-18.675-9.048-5.86 3.84-15.658 9.048-25.756 9.048-9.947 0-14.921-4.155-18.87-9.207-4.043 4.248-11.39 9.207-20.844 9.207-12.806 0-27.572-8.2-27.572-25.677 0-15.78 11.633-26.562 31.275-26.562 4.826 0 9.21.432 13.31 1.44v-2.565c0-5.727-3.8-9.432-12.398-9.432-5.392 0-14.19.915-21.445 2.187V62.646c7.596-1.308 17.355-2.343 26.736-2.343 21.168 0 31.615 9.477 31.615 25.58v27.265c0 5.367 1.061 9.258 6.159 9.258 4.592 0 9.476-2.997 11.952-4.758 0-.09-.01-.186-.01-.276V21.837h25.06zm275.217 12.885v27.95h18.6v21.91h-18.6v28.164c0 5.436 2.271 9.66 8.232 9.66 5.502 0 9.22-1.845 12.813-4.221.453-15.27 11.98-25.641 31.23-25.641 4.827 0 9.21.432 13.311 1.44v-2.565c0-5.727-3.645-9.432-13.299-9.432-5.39 0-11.874.768-20.694 2.187V62.646c8.286-1.458 17.35-2.343 25.983-2.343 21.168 0 32.514 9.477 32.514 25.58v27.265c0 5.367 1.062 9.258 6.162 9.258 4.74 0 9.795-3.198 12.183-4.926V62.646h21.64v9.582c3.89-9.438 11.075-12.19 16.484-12.19 3.348 0 7.536.892 10.155 2.2l-6.216 21.252c-10.758-1.467-17 6.534-17 14.79v44.196h-25.063v-4.077c-5.625 3.315-12.807 6.384-20.148 6.384-9.948 0-14.922-4.155-18.873-9.207-4.04 4.248-11.39 9.207-20.84 9.207-7.44 0-15.538-2.772-21.022-8.52-7.356 5.118-17.42 8.51-28.353 8.51-14.214 0-24.183-8.756-24.183-24.773V84.582h-10.572v-21.91h10.572v-27.95h24.984zM85.631.562c11.48 0 16.143 5.922 19.52 14.63 2.086 5.383 8.935 25.897 16.522 48.928 10.914-.816 18.519-1.323 27.219-1.476 7.026-.123 20.592 0 20.592 0l12.396 52.317 15.822-52.317h25.242s-20.868 59.57-24.852 69.432c-3.3 8.178-8.112 12.69-16.212 12.69-9.186 0-13.242-4.365-16.152-12.402-3.9-10.761-16.33-47.598-16.33-47.598-5.918-.108-15.191.609-20.528 1.28a9621.506 9621.506 0 0018.663 56.404h-27.168l-16.986-53.787c-12.327 1.659-24.76 3.852-37.071 6.453L51.94 142.45H24.773s6.237-19.18 13.344-41.694c-10.455 2.754-21.696 5.703-31.51 8.814L.264 88.705C14.59 84.073 30.953 79.858 45.61 76.3c8.598-26.988 17.229-53.59 20.12-60.88C69.507 5.924 76.137.563 85.632.563zM255.897 108.02c-5.712 0-10.422 2.82-10.422 8.859 0 4.779 3.498 8.049 8.322 8.049 6.867 0 10.482-6.138 10.482-13.182v-2.322c-2.887-.91-4.87-1.404-8.382-1.404zm408.471 0c-5.712 0-10.425 2.82-10.425 8.859 0 4.779 3.501 8.049 8.322 8.049 6.867 0 10.485-6.138 10.485-13.182v-2.322c-2.886-.91-4.872-1.404-8.382-1.404zM384.54 82.506c-7.628 0-10.32 9.159-10.32 20.72 0 11.389 2.692 19.18 10.32 19.18 7.564 0 10.117-8.592 10.117-19.18 0-12.233-2.553-20.72-10.117-20.72zM85.631 31.453L73.157 71.17c6.654-1.15 16.212-2.724 23.787-3.768L85.63 31.452z"/></svg>