<?xml version="1.0" encoding="UTF-8"?><svg version="1.1" viewBox="0 0 24 24" xmlns="http://www.w3.org/2000/svg" xmlns:xlink="http://www.w3.org/1999/xlink"><g stroke-linecap="round" stroke-width="1.5" stroke="currentColor" fill="none" stroke-linejoin="round"><path d="M.75 6.751v-4.501l1.70974e-14 2.26494e-07c-1.25089e-07-.828427.671573-1.5 1.5-1.5h4.5"></path><path d="M23.25 6.751v-4.501 0c0-.828427-.671573-1.5-1.5-1.5h-4.5"></path><path d="M.75 17.25v4.5l1.70974e-14 2.26494e-07c1.25089e-07.828427.671573 1.5 1.5 1.5h4.5"></path><path d="M23.25 17.25v4.5 0c0 .828427-.671573 1.5-1.5 1.5h-4.5"></path><circle cx="12" cy="8.625" r="4.125"></circle><path d="M18.337 18.75l1.90171e-07 5.44782e-07c-1.22171-3.49983-5.04927-5.34661-8.5491-4.1249 -1.93183.674355-3.45055 2.19307-4.1249 4.1249"></path></g></svg>
