<?xml version="1.0" encoding="UTF-8"?><svg version="1.1" viewBox="0 0 24 24" xmlns="http://www.w3.org/2000/svg" xmlns:xlink="http://www.w3.org/1999/xlink"><g stroke-linecap="round" stroke-width="1.5" stroke="currentColor" fill="none" stroke-linejoin="round"><path d="M17.25 5.25h1.5l-6.55671e-08 1.77636e-15c.828427-3.62117e-08 1.5.671573 1.5 1.5v7.5 0c0 .828427-.671573 1.5-1.5 1.5h-2.25"></path><path d="M7.5 15.75h-2.25l-6.55671e-08-1.77636e-15c-.828427-3.62117e-08-1.5-.671573-1.5-1.5 0 0 0-1.77636e-15 0-1.77636e-15v-7.5l1.68754e-14 2.26494e-07c-1.25089e-07-.828427.671573-1.5 1.5-1.5h1.5"></path><path d="M18.571 15.75l-1.4425e-07-4.89564e-12c1.13613 3.85501e-05 2.17477.641878 2.683 1.658l1.836 3.671 -2.07153e-08-4.14168e-08c.370583.740918.0703673 1.64197-.670551 2.01255 -.208466.104268-.438362.158519-.671449.158449h-19.496l-6.47789e-08 1.93872e-11c-.828427.000247941-1.5002-.671124-1.50045-1.49955 -6.97608e-05-.233087.0541813-.462983.158449-.671449l1.836-3.671 3.23488e-09-6.46759e-09c.508231-1.01612 1.54687-1.65796 2.683-1.658"></path><path d="M14.25 3.956c0-1.771-2.25-3.206-2.25-3.206 0 0-2.25 1.435-2.25 3.206v7.481h4.5Z"></path><path d="M9.75 11.437h-2.738l-3.02245e-08 5.35294e-10c-.16782.00297219-.329212-.0644862-.445-.186l1.07496e-08 1.14474e-08c-.104482-.111264-.142496-.269404-.1-.416l-4.13269e-08 1.14661e-07c.542326-1.50467 1.75689-2.6693 3.283-3.148"></path><path d="M14.25 11.437h2.738l1.21314e-08 1.94946e-10c.167474.00269125.328449-.0647444.444-.186l1.89365e-08-2.00589e-08c.10485-.111065.142915-.269414.1-.416l1.80563e-07 4.99417e-07c-.543583-1.50349-1.75716-2.66753-3.282-3.148"></path><line x1="10.5" x2="10.5" y1="14.25" y2="16.5"></line><line x1="13.5" x2="13.5" y1="14.25" y2="18.75"></line></g></svg>
